<svg xmlns="http://www.w3.org/2000/svg" width="220" height="47" viewBox="0 0 220 47" fill="none"><rect y="0.46875" width="219.339" height="45.6245" rx="6.40343" fill="url(#paint0_radial_47_137)"></rect><mask id="mask0_47_137" style="mask-type:alpha" maskUnits="userSpaceOnUse" x="1" y="0" width="219" height="47"><rect x="1.4624" y="0.46875" width="217.877" height="45.6245" rx="6.40343" fill="url(#paint1_radial_47_137)"></rect></mask><g mask="url(#mask0_47_137)"><ellipse cx="109.965" cy="0.0677681" rx="129.419" ry="32.4174" fill="white" fill-opacity="0.2"></ellipse></g><path d="M32.9135 30.2588C31.3537 30.2588 29.9402 29.9468 28.6729 29.3229C27.4056 28.6795 26.4015 27.7339 25.6607 26.4861C24.9198 25.2383 24.5591 23.6883 24.5786 21.8361C24.5786 20.0034 24.949 18.4437 25.6899 17.1569C26.4308 15.8701 27.4349 14.8953 28.7022 14.2324C29.9695 13.55 31.4025 13.2088 33.0012 13.2088C34.5805 13.2088 35.9257 13.4915 37.0371 14.0569C38.1484 14.6223 39.016 15.3827 39.6399 16.338C40.2833 17.2934 40.7025 18.3462 40.8974 19.4965H37.2418C37.1248 18.6776 36.8323 18.0635 36.3644 17.6541C35.8965 17.2251 35.3506 16.9327 34.7267 16.7767C34.1223 16.6207 33.5471 16.5427 33.0012 16.5427C31.383 16.5427 30.1547 16.9814 29.3163 17.8588C28.478 18.7361 28.0588 19.9742 28.0588 21.5729C28.0588 23.2886 28.4585 24.6144 29.2578 25.5503C30.0767 26.4861 31.3147 26.954 32.972 26.954C33.5374 26.954 34.132 26.8663 34.7559 26.6908C35.3798 26.5154 35.9257 26.2034 36.3937 25.755C36.8811 25.2871 37.1833 24.6437 37.3003 23.8248H40.9852C40.7707 25.0141 40.3418 26.0962 39.6984 27.071C39.055 28.0264 38.1679 28.7965 37.0371 29.3814C35.9062 29.9663 34.5317 30.2588 32.9135 30.2588ZM48.6611 30.2588C47.2574 30.2588 46.0973 29.9956 45.181 29.4691C44.2646 28.9427 43.5725 28.2116 43.1045 27.2757C42.6561 26.3399 42.4319 25.2773 42.4319 24.088C42.3929 22.2943 42.8998 20.8125 43.9527 19.6427C45.0055 18.4729 46.575 17.888 48.6611 17.888C50.6888 17.888 52.2291 18.4534 53.2819 19.5842C54.3347 20.7151 54.8611 22.2163 54.8611 24.088C54.8611 25.2578 54.6369 26.3107 54.1885 27.2465C53.7401 28.1629 53.0577 28.894 52.1413 29.4399C51.225 29.9858 50.0649 30.2588 48.6611 30.2588ZM48.6611 27.305C49.4605 27.305 50.0552 27.1393 50.4451 26.8078C50.8545 26.4764 51.1275 26.0572 51.264 25.5503C51.4004 25.0239 51.4687 24.4974 51.4687 23.971C51.4687 23.4251 51.4004 22.8987 51.264 22.3918C51.1275 21.8654 50.8545 21.4364 50.4451 21.105C50.0552 20.7541 49.4605 20.5786 48.6611 20.5786C47.8618 20.5786 47.2574 20.7541 46.8479 21.105C46.4385 21.4364 46.1655 21.8654 46.0291 22.3918C45.8926 22.8987 45.8243 23.4251 45.8243 23.971C45.8243 24.4974 45.8926 25.0239 46.0291 25.5503C46.1655 26.0572 46.4385 26.4764 46.8479 26.8078C47.2574 27.1393 47.8618 27.305 48.6611 27.305ZM56.8928 29.9663V17.9173H59.9928L60.022 20.3154H60.0805C60.0805 20.2764 60.139 20.1399 60.256 19.9059C60.3924 19.6525 60.5874 19.3698 60.8409 19.0578C61.1138 18.7459 61.4648 18.4827 61.8937 18.2682C62.3421 18.0342 62.8978 17.9173 63.5607 17.9173C64.4575 17.9173 65.1399 18.1512 65.6079 18.6191C66.0953 19.0871 66.4462 19.6525 66.6607 20.3154H66.7192C66.7192 20.2764 66.7874 20.1399 66.9239 19.9059C67.0799 19.6525 67.3041 19.3698 67.5965 19.0578C67.889 18.7459 68.2692 18.4827 68.7371 18.2682C69.205 18.0342 69.7704 17.9173 70.4333 17.9173C71.1742 17.9173 71.7786 18.0732 72.2465 18.3852C72.7145 18.6971 73.0751 19.1066 73.3286 19.6135C73.5821 20.1204 73.7575 20.6663 73.855 21.2512C73.9525 21.8166 74.011 22.3625 74.0305 22.889C74.05 23.3959 74.0597 23.8151 74.0597 24.1465V29.9663H71.106V24.1173C71.106 23.7468 71.0767 23.3179 71.0182 22.8305C70.9597 22.343 70.794 21.9239 70.5211 21.5729C70.2481 21.2025 69.7802 21.0173 69.1173 21.0173C68.4934 21.0173 68.0352 21.183 67.7428 21.5144C67.4503 21.8264 67.2553 22.2261 67.1579 22.7135C67.0799 23.2009 67.0409 23.6883 67.0409 24.1757V29.9663H64.0871V24.1173C64.0871 23.7468 64.0579 23.3179 63.9994 22.8305C63.9409 22.343 63.7751 21.9239 63.5022 21.5729C63.2292 21.2025 62.7613 21.0173 62.0984 21.0173C61.4745 21.0173 61.0163 21.183 60.7239 21.5144C60.4314 21.8264 60.2365 22.2261 60.139 22.7135C60.061 23.2009 60.022 23.6883 60.022 24.1757V29.9663H56.8928ZM84.0376 30.2588C83.3162 30.2588 82.7118 30.1515 82.2244 29.9371C81.7565 29.7226 81.3763 29.4789 81.0839 29.2059C80.7914 28.933 80.5769 28.6893 80.4405 28.4748C80.3235 28.2408 80.265 28.1044 80.265 28.0654H80.2065V35.5522H76.5508V17.9173H79.6508L80.2065 20.3154H80.265C80.265 20.2959 80.3235 20.1691 80.4405 19.9352C80.5574 19.6817 80.7524 19.399 81.0254 19.0871C81.2983 18.7751 81.6785 18.5022 82.1659 18.2682C82.6533 18.0342 83.2772 17.9173 84.0376 17.9173C85.8313 17.9173 87.0986 18.4827 87.8395 19.6135C88.5804 20.7443 88.9508 22.2651 88.9508 24.1757C88.9508 26.0669 88.5706 27.5584 87.8103 28.6503C87.0694 29.7226 85.8118 30.2588 84.0376 30.2588ZM82.8971 27.305C83.6574 27.305 84.2228 27.1588 84.5933 26.8663C84.9832 26.5544 85.2367 26.1644 85.3537 25.6965C85.4901 25.2091 85.5584 24.6924 85.5584 24.1465C85.5584 23.6201 85.4901 23.1229 85.3537 22.655C85.2172 22.1676 84.954 21.7776 84.564 21.4852C84.1741 21.1732 83.6087 21.0173 82.8678 21.0173C81.7955 21.0173 81.0839 21.3292 80.7329 21.9531C80.382 22.5575 80.2065 23.2886 80.2065 24.1465C80.2065 25.0239 80.382 25.7745 80.7329 26.3984C81.1034 27.0028 81.8247 27.305 82.8971 27.305ZM90.8803 29.9663V17.9173H94.2143L94.4482 21.3097C94.5652 20.8028 94.7894 20.2861 95.1209 19.7597C95.4523 19.2333 95.93 18.7946 96.5539 18.4437C97.1778 18.0927 97.9869 17.9173 98.9813 17.9173H99.3322V21.8361H98.952C97.3923 21.8361 96.242 22.0506 95.5011 22.4795C94.7797 22.889 94.419 23.7176 94.419 24.9654V29.9663H90.8803ZM105.341 30.2588C103.683 30.2588 102.523 29.7031 101.86 28.5918C101.197 27.461 100.866 25.9695 100.866 24.1173C100.866 22.2456 101.197 20.7443 101.86 19.6135C102.543 18.4632 103.703 17.888 105.341 17.888C106.081 17.888 106.696 17.9952 107.183 18.2097C107.67 18.4047 108.06 18.6484 108.353 18.9408C108.645 19.2333 108.85 19.5063 108.967 19.7597C109.103 19.9937 109.191 20.1399 109.23 20.1984H109.289V17.9173H112.915V29.9663H109.844L109.289 28.1531H109.23C109.191 28.2506 109.045 28.4748 108.791 28.8257C108.557 29.1572 108.158 29.4789 107.592 29.7908C107.046 30.1028 106.296 30.2588 105.341 30.2588ZM106.803 27.305C107.505 27.305 108.031 27.1588 108.382 26.8663C108.733 26.5739 108.967 26.1937 109.084 25.7257C109.201 25.2383 109.259 24.7119 109.259 24.1465C109.259 23.5616 109.201 23.0352 109.084 22.5673C108.967 22.0798 108.733 21.6996 108.382 21.4267C108.031 21.1342 107.505 20.988 106.803 20.988C106.101 20.988 105.565 21.1342 105.194 21.4267C104.843 21.7191 104.609 22.1091 104.492 22.5965C104.375 23.0644 104.317 23.5811 104.317 24.1465C104.317 24.7119 104.375 25.2383 104.492 25.7257C104.609 26.1937 104.843 26.5739 105.194 26.8663C105.565 27.1588 106.101 27.305 106.803 27.305ZM114.956 29.9663V17.9173H118.29L118.524 21.3097C118.641 20.8028 118.865 20.2861 119.197 19.7597C119.528 19.2333 120.006 18.7946 120.63 18.4437C121.254 18.0927 122.063 17.9173 123.057 17.9173H123.408V21.8361H123.028C121.468 21.8361 120.318 22.0506 119.577 22.4795C118.856 22.889 118.495 23.7176 118.495 24.9654V29.9663H114.956ZM135.528 30.2588C133.871 30.2588 132.711 29.7031 132.048 28.5918C131.385 27.461 131.054 25.9695 131.054 24.1173C131.054 22.2456 131.385 20.7443 132.048 19.6135C132.73 18.4632 133.891 17.888 135.528 17.888C136.269 17.888 136.883 17.9952 137.371 18.2097C137.858 18.4047 138.248 18.6484 138.541 18.9408C138.833 19.2333 139.038 19.5063 139.155 19.7597C139.291 19.9937 139.379 20.1399 139.418 20.1984H139.476V17.9173H143.103V29.9663H140.032L139.476 28.1531H139.418C139.379 28.2506 139.233 28.4748 138.979 28.8257C138.745 29.1572 138.346 29.4789 137.78 29.7908C137.234 30.1028 136.484 30.2588 135.528 30.2588ZM136.991 27.305C137.692 27.305 138.219 27.1588 138.57 26.8663C138.921 26.5739 139.155 26.1937 139.272 25.7257C139.389 25.2383 139.447 24.7119 139.447 24.1465C139.447 23.5616 139.389 23.0352 139.272 22.5673C139.155 22.0798 138.921 21.6996 138.57 21.4267C138.219 21.1342 137.692 20.988 136.991 20.988C136.289 20.988 135.752 21.1342 135.382 21.4267C135.031 21.7191 134.797 22.1091 134.68 22.5965C134.563 23.0644 134.505 23.5811 134.505 24.1465C134.505 24.7119 134.563 25.2383 134.68 25.7257C134.797 26.1937 135.031 26.5739 135.382 26.8663C135.752 27.1588 136.289 27.305 136.991 27.305ZM148.653 35.5522V32.2182H153.596V28.0654H153.537C153.518 28.1044 153.44 28.2408 153.303 28.4748C153.186 28.6893 152.972 28.933 152.66 29.2059C152.368 29.4789 151.978 29.7226 151.49 29.9371C151.022 30.1515 150.428 30.2588 149.706 30.2588C147.913 30.2588 146.645 29.7031 145.904 28.5918C145.183 27.4805 144.822 25.9987 144.822 24.1465C144.822 22.1968 145.193 20.6761 145.934 19.5842C146.674 18.4729 147.932 17.9173 149.706 17.9173C150.467 17.9173 151.091 18.0342 151.578 18.2682C152.065 18.5022 152.446 18.7751 152.719 19.0871C153.011 19.399 153.216 19.6817 153.333 19.9352C153.45 20.1691 153.518 20.2959 153.537 20.3154H153.596V17.9173H157.222V30.4635C157.222 32.3937 156.842 33.7195 156.082 34.4408C155.321 35.1817 154.171 35.5522 152.631 35.5522H148.653ZM150.876 27.305C151.948 27.305 152.66 27.0028 153.011 26.3984C153.381 25.7745 153.567 25.0239 153.567 24.1465C153.567 23.2886 153.391 22.5575 153.04 21.9531C152.689 21.3292 151.987 21.0173 150.935 21.0173C150.174 21.0173 149.599 21.1732 149.209 21.4852C148.839 21.7776 148.585 22.1676 148.449 22.655C148.312 23.1229 148.244 23.6201 148.244 24.1465C148.244 24.6924 148.302 25.2091 148.419 25.6965C148.556 26.1644 148.809 26.5544 149.18 26.8663C149.57 27.1588 150.135 27.305 150.876 27.305ZM165.128 30.2588C163.724 30.2588 162.564 29.9956 161.648 29.4691C160.732 28.9427 160.039 28.2116 159.571 27.2757C159.123 26.3399 158.899 25.2773 158.899 24.088C158.86 22.2943 159.367 20.8125 160.42 19.6427C161.472 18.4729 163.042 17.888 165.128 17.888C167.156 17.888 168.696 18.4534 169.749 19.5842C170.802 20.7151 171.328 22.2163 171.328 24.088C171.328 25.2578 171.104 26.3107 170.655 27.2465C170.207 28.1629 169.525 28.894 168.608 29.4399C167.692 29.9858 166.532 30.2588 165.128 30.2588ZM165.128 27.305C165.927 27.305 166.522 27.1393 166.912 26.8078C167.321 26.4764 167.594 26.0572 167.731 25.5503C167.867 25.0239 167.936 24.4974 167.936 23.971C167.936 23.4251 167.867 22.8987 167.731 22.3918C167.594 21.8654 167.321 21.4364 166.912 21.105C166.522 20.7541 165.927 20.5786 165.128 20.5786C164.329 20.5786 163.724 20.7541 163.315 21.105C162.905 21.4364 162.633 21.8654 162.496 22.3918C162.36 22.8987 162.291 23.4251 162.291 23.971C162.291 24.4974 162.36 25.0239 162.496 25.5503C162.633 26.0572 162.905 26.4764 163.315 26.8078C163.724 27.1393 164.329 27.305 165.128 27.305ZM173.418 29.9663V17.9173H176.752L176.986 21.3097C177.103 20.8028 177.327 20.2861 177.659 19.7597C177.99 19.2333 178.468 18.7946 179.092 18.4437C179.716 18.0927 180.525 17.9173 181.519 17.9173H181.87V21.8361H181.49C179.93 21.8361 178.78 22.0506 178.039 22.4795C177.318 22.889 176.957 23.7176 176.957 24.9654V29.9663H173.418ZM187.878 30.2588C186.221 30.2588 185.061 29.7031 184.398 28.5918C183.735 27.461 183.404 25.9695 183.404 24.1173C183.404 22.2456 183.735 20.7443 184.398 19.6135C185.081 18.4632 186.241 17.888 187.878 17.888C188.619 17.888 189.233 17.9952 189.721 18.2097C190.208 18.4047 190.598 18.6484 190.891 18.9408C191.183 19.2333 191.388 19.5063 191.505 19.7597C191.641 19.9937 191.729 20.1399 191.768 20.1984H191.827V17.9173H195.453V29.9663H192.382L191.827 28.1531H191.768C191.729 28.2506 191.583 28.4748 191.329 28.8257C191.095 29.1572 190.696 29.4789 190.13 29.7908C189.584 30.1028 188.834 30.2588 187.878 30.2588ZM189.341 27.305C190.043 27.305 190.569 27.1588 190.92 26.8663C191.271 26.5739 191.505 26.1937 191.622 25.7257C191.739 25.2383 191.797 24.7119 191.797 24.1465C191.797 23.5616 191.739 23.0352 191.622 22.5673C191.505 22.0798 191.271 21.6996 190.92 21.4267C190.569 21.1342 190.043 20.988 189.341 20.988C188.639 20.988 188.103 21.1342 187.732 21.4267C187.381 21.7191 187.147 22.1091 187.03 22.5965C186.913 23.0644 186.855 23.5811 186.855 24.1465C186.855 24.7119 186.913 25.2383 187.03 25.7257C187.147 26.1937 187.381 26.5739 187.732 26.8663C188.103 27.1588 188.639 27.305 189.341 27.305Z" fill="url(#paint2_linear_47_137)"></path><defs><radialGradient id="paint0_radial_47_137" cx="0" cy="0" r="1" gradientUnits="userSpaceOnUse" gradientTransform="translate(109.67 21.6801) rotate(2.02632) scale(158.462 24.4345)"><stop stop-color="#0AE22E"></stop><stop offset="1" stop-color="#07C529"></stop></radialGradient><radialGradient id="paint1_radial_47_137" cx="0" cy="0" r="1" gradientUnits="userSpaceOnUse" gradientTransform="translate(110.401 21.6801) rotate(2.03991) scale(157.407 24.4343)"><stop stop-color="#0AE22E"></stop><stop offset="1" stop-color="#07C529"></stop></radialGradient><linearGradient id="paint2_linear_47_137" x1="94.3173" y1="38.4369" x2="94.3173" y2="22.4369" gradientUnits="userSpaceOnUse"><stop stop-color="#AFFC62"></stop><stop offset="1" stop-color="white"></stop></linearGradient></defs></svg>