<svg xmlns="http://www.w3.org/2000/svg" width="328" height="57" viewBox="0 0 328 57" fill="none"><rect width="328" height="57" rx="8" fill="url(#paint0_radial_77_12)"></rect><mask id="mask0_77_12" style="mask-type:alpha" maskUnits="userSpaceOnUse" x="2" y="0" width="326" height="57"><rect x="2" width="326" height="57" rx="8" fill="url(#paint1_radial_77_12)"></rect></mask><g mask="url(#mask0_77_12)"><ellipse cx="164.348" cy="-0.5" rx="193.644" ry="40.5" fill="white" fill-opacity="0.2"></ellipse></g><path d="M25.8057 35.266C24.4503 35.266 23.266 35.019 22.2527 34.525C21.252 34.031 20.4793 33.347 19.9347 32.473C19.39 31.5863 19.1177 30.5667 19.1177 29.414C19.1177 28.2613 19.3203 27.1973 19.7257 26.222C20.131 25.2467 20.701 24.4043 21.4357 23.695C22.1703 22.973 23.0443 22.4157 24.0577 22.023C25.0837 21.6303 26.2173 21.434 27.4587 21.434C28.6873 21.434 29.7767 21.6493 30.7267 22.08C31.6767 22.5107 32.386 23.1313 32.8547 23.942L30.1377 26.108C29.8337 25.6013 29.4347 25.215 28.9407 24.949C28.4593 24.683 27.883 24.55 27.2117 24.55C26.5657 24.55 25.9767 24.664 25.4447 24.892C24.9253 25.12 24.4757 25.443 24.0957 25.861C23.7157 26.279 23.4243 26.773 23.2217 27.343C23.019 27.9003 22.9177 28.5083 22.9177 29.167C22.9177 29.7623 23.0443 30.288 23.2977 30.744C23.5637 31.1873 23.9373 31.5357 24.4187 31.789C24.9127 32.0297 25.4953 32.15 26.1667 32.15C26.762 32.15 27.332 32.0297 27.8767 31.789C28.434 31.5483 28.947 31.1557 29.4157 30.611L31.6387 32.796C30.8913 33.6953 30.03 34.335 29.0547 34.715C28.0793 35.0823 26.9963 35.266 25.8057 35.266ZM39.4787 35.266C38.1107 35.266 36.9327 35.019 35.9447 34.525C34.9567 34.0183 34.1967 33.328 33.6647 32.454C33.1327 31.58 32.8667 30.5667 32.8667 29.414C32.8667 28.2487 33.0693 27.1847 33.4747 26.222C33.88 25.2467 34.45 24.4043 35.1847 23.695C35.9193 22.973 36.7933 22.4157 37.8067 22.023C38.8327 21.6303 39.9537 21.434 41.1697 21.434C42.5377 21.434 43.7157 21.6873 44.7037 22.194C45.6917 22.688 46.4517 23.372 46.9837 24.246C47.5157 25.12 47.7817 26.1333 47.7817 27.286C47.7817 28.4513 47.579 29.5217 47.1737 30.497C46.7683 31.4597 46.1983 32.302 45.4637 33.024C44.729 33.7333 43.8487 34.2843 42.8227 34.677C41.8093 35.0697 40.6947 35.266 39.4787 35.266ZM39.8017 32.15C40.4603 32.15 41.043 32.0297 41.5497 31.789C42.069 31.5483 42.506 31.2127 42.8607 30.782C43.228 30.3387 43.5067 29.8383 43.6967 29.281C43.8867 28.7237 43.9817 28.1347 43.9817 27.514C43.9817 26.9187 43.855 26.3993 43.6017 25.956C43.361 25.5127 43.0063 25.1707 42.5377 24.93C42.0817 24.6767 41.518 24.55 40.8467 24.55C40.2007 24.55 39.618 24.6703 39.0987 24.911C38.5793 25.1517 38.136 25.4937 37.7687 25.937C37.414 26.3677 37.1417 26.8617 36.9517 27.419C36.7617 27.9763 36.6667 28.5653 36.6667 29.186C36.6667 29.7687 36.787 30.288 37.0277 30.744C37.281 31.1873 37.6357 31.5357 38.0917 31.789C38.5603 32.0297 39.1303 32.15 39.8017 32.15ZM48.365 35L51.025 21.7H54.084L57.751 30.763H56.136L63.242 21.7H66.453L63.831 35H60.354L61.931 26.944L62.558 26.925L57.295 33.689H55.642L52.773 26.906L53.438 26.963L51.823 35H48.365ZM66.493 35L69.153 21.7H74.777C76.4996 21.7 77.8296 22.0737 78.767 22.821C79.7043 23.5683 80.173 24.6197 80.173 25.975C80.173 27.0897 79.907 28.065 79.375 28.901C78.843 29.737 78.083 30.383 77.095 30.839C76.107 31.295 74.9416 31.523 73.599 31.523H69.286L71.281 29.851L70.255 35H66.493ZM71.186 30.288L69.875 28.559H73.77C74.5933 28.559 75.233 28.3627 75.689 27.97C76.145 27.5773 76.373 27.02 76.373 26.298C76.373 25.7407 76.1893 25.329 75.822 25.063C75.4546 24.797 74.9416 24.664 74.283 24.664H70.673L72.668 22.878L71.186 30.288ZM80.3162 35L82.9762 21.7H88.6572C90.3672 21.7 91.6845 22.0737 92.6092 22.821C93.5465 23.5683 94.0152 24.607 94.0152 25.937C94.0152 27.0517 93.7429 28.027 93.1982 28.863C92.6662 29.6863 91.9062 30.326 90.9182 30.782C89.9302 31.238 88.7649 31.466 87.4222 31.466H83.1092L85.1042 29.851L84.0782 35H80.3162ZM88.6572 35L85.9402 30.155H89.8352L92.5902 35H88.6572ZM85.0092 30.288L83.6982 28.559H87.5932C88.4292 28.559 89.0752 28.3627 89.5312 27.97C89.9872 27.5773 90.2152 27.02 90.2152 26.298C90.2152 25.7407 90.0315 25.329 89.6642 25.063C89.2969 24.797 88.7839 24.664 88.1252 24.664H84.4962L86.5102 22.878L85.0092 30.288ZM92.7847 35L101.316 21.7H105.021L108.232 35H104.489L102.114 23.486H103.596L96.7557 35H92.7847ZM96.5087 32.416L98.0287 29.642H104.527L104.945 32.416H96.5087ZM109.317 35L111.977 21.7H117.658C119.368 21.7 120.686 22.0737 121.61 22.821C122.548 23.5683 123.016 24.607 123.016 25.937C123.016 27.0517 122.744 28.027 122.199 28.863C121.667 29.6863 120.907 30.326 119.919 30.782C118.931 31.238 117.766 31.466 116.423 31.466H112.11L114.105 29.851L113.079 35H109.317ZM117.658 35L114.941 30.155H118.836L121.591 35H117.658ZM114.01 30.288L112.699 28.559H116.594C117.43 28.559 118.076 28.3627 118.532 27.97C118.988 27.5773 119.216 27.02 119.216 26.298C119.216 25.7407 119.033 25.329 118.665 25.063C118.298 24.797 117.785 24.664 117.126 24.664H113.497L115.511 22.878L114.01 30.288ZM136.169 35.266C134.814 35.266 133.629 35.019 132.616 34.525C131.615 34.031 130.843 33.347 130.298 32.473C129.753 31.5863 129.481 30.5667 129.481 29.414C129.481 28.2613 129.684 27.1973 130.089 26.222C130.494 25.2467 131.064 24.4043 131.799 23.695C132.534 22.973 133.408 22.4157 134.421 22.023C135.447 21.6303 136.581 21.434 137.822 21.434C139.051 21.434 140.14 21.6493 141.09 22.08C142.04 22.5107 142.749 23.1313 143.218 23.942L140.501 26.108C140.197 25.6013 139.798 25.215 139.304 24.949C138.823 24.683 138.246 24.55 137.575 24.55C136.929 24.55 136.34 24.664 135.808 24.892C135.289 25.12 134.839 25.443 134.459 25.861C134.079 26.279 133.788 26.773 133.585 27.343C133.382 27.9003 133.281 28.5083 133.281 29.167C133.281 29.7623 133.408 30.288 133.661 30.744C133.927 31.1873 134.301 31.5357 134.782 31.789C135.276 32.0297 135.859 32.15 136.53 32.15C137.125 32.15 137.695 32.0297 138.24 31.789C138.797 31.5483 139.31 31.1557 139.779 30.611L142.002 32.796C141.255 33.6953 140.393 34.335 139.418 34.715C138.443 35.0823 137.36 35.266 136.169 35.266ZM149.842 35.266C148.474 35.266 147.296 35.019 146.308 34.525C145.32 34.0183 144.56 33.328 144.028 32.454C143.496 31.58 143.23 30.5667 143.23 29.414C143.23 28.2487 143.433 27.1847 143.838 26.222C144.243 25.2467 144.813 24.4043 145.548 23.695C146.283 22.973 147.157 22.4157 148.17 22.023C149.196 21.6303 150.317 21.434 151.533 21.434C152.901 21.434 154.079 21.6873 155.067 22.194C156.055 22.688 156.815 23.372 157.347 24.246C157.879 25.12 158.145 26.1333 158.145 27.286C158.145 28.4513 157.942 29.5217 157.537 30.497C157.132 31.4597 156.562 32.302 155.827 33.024C155.092 33.7333 154.212 34.2843 153.186 34.677C152.173 35.0697 151.058 35.266 149.842 35.266ZM150.165 32.15C150.824 32.15 151.406 32.0297 151.913 31.789C152.432 31.5483 152.869 31.2127 153.224 30.782C153.591 30.3387 153.87 29.8383 154.06 29.281C154.25 28.7237 154.345 28.1347 154.345 27.514C154.345 26.9187 154.218 26.3993 153.965 25.956C153.724 25.5127 153.37 25.1707 152.901 24.93C152.445 24.6767 151.881 24.55 151.21 24.55C150.564 24.55 149.981 24.6703 149.462 24.911C148.943 25.1517 148.499 25.4937 148.132 25.937C147.777 26.3677 147.505 26.8617 147.315 27.419C147.125 27.9763 147.03 28.5653 147.03 29.186C147.03 29.7687 147.15 30.288 147.391 30.744C147.644 31.1873 147.999 31.5357 148.455 31.789C148.924 32.0297 149.494 32.15 150.165 32.15ZM158.728 35L161.388 21.7H164.447L168.114 30.763H166.499L173.605 21.7H176.816L174.194 35H170.717L172.294 26.944L172.921 26.925L167.658 33.689H166.005L163.136 26.906L163.801 26.963L162.186 35H158.728ZM187.345 35.266C186.585 35.266 185.856 35.2027 185.16 35.076C184.463 34.962 183.83 34.7973 183.26 34.582C182.69 34.354 182.202 34.107 181.797 33.841L183.279 31.029C183.735 31.3077 184.203 31.5483 184.685 31.751C185.179 31.941 185.679 32.0867 186.186 32.188C186.692 32.2893 187.199 32.34 187.706 32.34C188.187 32.34 188.599 32.2957 188.941 32.207C189.283 32.1057 189.542 31.9663 189.72 31.789C189.897 31.6117 189.986 31.4027 189.986 31.162C189.986 30.896 189.865 30.687 189.625 30.535C189.397 30.3703 189.093 30.231 188.713 30.117C188.333 30.003 187.908 29.889 187.44 29.775C186.984 29.6483 186.521 29.5027 186.053 29.338C185.597 29.1607 185.179 28.9453 184.799 28.692C184.419 28.426 184.108 28.0903 183.868 27.685C183.64 27.2797 183.526 26.7793 183.526 26.184C183.526 25.2213 183.785 24.3853 184.305 23.676C184.824 22.9667 185.559 22.4157 186.509 22.023C187.471 21.6303 188.605 21.434 189.91 21.434C190.86 21.434 191.746 21.5353 192.57 21.738C193.393 21.928 194.102 22.2067 194.698 22.574L193.33 25.367C192.81 25.0377 192.234 24.7907 191.601 24.626C190.98 24.4487 190.34 24.36 189.682 24.36C189.175 24.36 188.738 24.417 188.371 24.531C188.016 24.645 187.744 24.8033 187.554 25.006C187.376 25.196 187.288 25.4113 187.288 25.652C187.288 25.9053 187.402 26.1143 187.63 26.279C187.858 26.4437 188.162 26.583 188.542 26.697C188.934 26.811 189.359 26.9313 189.815 27.058C190.283 27.172 190.746 27.3113 191.202 27.476C191.658 27.628 192.082 27.837 192.475 28.103C192.867 28.3563 193.178 28.6793 193.406 29.072C193.634 29.4647 193.748 29.9523 193.748 30.535C193.748 31.485 193.488 32.3147 192.969 33.024C192.449 33.7333 191.708 34.2843 190.746 34.677C189.783 35.0697 188.649 35.266 187.345 35.266ZM199.76 26.849H205.935L205.384 29.661H199.209L199.76 26.849ZM198.981 32.093H205.954L205.346 35H194.687L197.347 21.7H207.759L207.17 24.607H200.463L198.981 32.093ZM214.711 35.266C213.368 35.266 212.19 35.019 211.177 34.525C210.176 34.031 209.397 33.347 208.84 32.473C208.295 31.5863 208.023 30.5667 208.023 29.414C208.023 28.2613 208.226 27.1973 208.631 26.222C209.036 25.2467 209.613 24.4043 210.36 23.695C211.107 22.973 211.994 22.4157 213.02 22.023C214.059 21.6303 215.211 21.434 216.478 21.434C217.808 21.434 218.954 21.643 219.917 22.061C220.892 22.479 221.678 23.087 222.273 23.885L219.575 26.013C219.132 25.4683 218.65 25.0883 218.131 24.873C217.612 24.6577 217.004 24.55 216.307 24.55C215.623 24.55 215.002 24.664 214.445 24.892C213.9 25.12 213.432 25.443 213.039 25.861C212.646 26.279 212.342 26.773 212.127 27.343C211.924 27.9003 211.823 28.5083 211.823 29.167C211.823 29.7623 211.956 30.288 212.222 30.744C212.488 31.1873 212.874 31.5357 213.381 31.789C213.888 32.0297 214.502 32.15 215.224 32.15C215.807 32.15 216.364 32.055 216.896 31.865C217.441 31.675 217.985 31.3583 218.53 30.915L219.955 33.67C219.271 34.1767 218.479 34.5693 217.58 34.848C216.681 35.1267 215.724 35.266 214.711 35.266ZM216.744 33.081L217.751 28.065H221.076L219.955 33.67L216.744 33.081ZM228.553 35.266C227.223 35.266 226.108 35.0127 225.209 34.506C224.322 33.9867 223.695 33.2647 223.328 32.34C222.961 31.4027 222.897 30.3133 223.138 29.072L224.62 21.7H228.382L226.919 29.015C226.818 29.547 226.786 30.0093 226.824 30.402C226.862 30.7947 226.97 31.124 227.147 31.39C227.337 31.656 227.584 31.8523 227.888 31.979C228.205 32.093 228.578 32.15 229.009 32.15C229.528 32.15 229.978 32.0487 230.358 31.846C230.751 31.6307 231.074 31.295 231.327 30.839C231.593 30.3703 231.796 29.7623 231.935 29.015L233.398 21.7H237.103L235.602 29.243C235.209 31.219 234.424 32.72 233.246 33.746C232.068 34.7593 230.504 35.266 228.553 35.266ZM237.011 35L239.671 21.7H245.352C247.062 21.7 248.379 22.0737 249.304 22.821C250.241 23.5683 250.71 24.607 250.71 25.937C250.71 27.0517 250.437 28.027 249.893 28.863C249.361 29.6863 248.601 30.326 247.613 30.782C246.625 31.238 245.459 31.466 244.117 31.466H239.804L241.799 29.851L240.773 35H237.011ZM245.352 35L242.635 30.155H246.53L249.285 35H245.352ZM241.704 30.288L240.393 28.559H244.288C245.124 28.559 245.77 28.3627 246.226 27.97C246.682 27.5773 246.91 27.02 246.91 26.298C246.91 25.7407 246.726 25.329 246.359 25.063C245.991 24.797 245.478 24.664 244.82 24.664H241.191L243.205 22.878L241.704 30.288ZM249.479 35L258.01 21.7H261.715L264.926 35H261.183L258.808 23.486H260.29L253.45 35H249.479ZM253.203 32.416L254.723 29.642H261.221L261.639 32.416H253.203ZM266.012 35L268.672 21.7H271.769L277.146 30.592L275.854 30.554L277.621 21.7H281.307L278.647 35H275.55L270.192 26.108L271.465 26.146L269.698 35H266.012ZM288.577 35.266C287.222 35.266 286.037 35.019 285.024 34.525C284.023 34.031 283.251 33.347 282.706 32.473C282.161 31.5863 281.889 30.5667 281.889 29.414C281.889 28.2613 282.092 27.1973 282.497 26.222C282.902 25.2467 283.472 24.4043 284.207 23.695C284.942 22.973 285.816 22.4157 286.829 22.023C287.855 21.6303 288.989 21.434 290.23 21.434C291.459 21.434 292.548 21.6493 293.498 22.08C294.448 22.5107 295.157 23.1313 295.626 23.942L292.909 26.108C292.605 25.6013 292.206 25.215 291.712 24.949C291.231 24.683 290.654 24.55 289.983 24.55C289.337 24.55 288.748 24.664 288.216 24.892C287.697 25.12 287.247 25.443 286.867 25.861C286.487 26.279 286.196 26.773 285.993 27.343C285.79 27.9003 285.689 28.5083 285.689 29.167C285.689 29.7623 285.816 30.288 286.069 30.744C286.335 31.1873 286.709 31.5357 287.19 31.789C287.684 32.0297 288.267 32.15 288.938 32.15C289.533 32.15 290.103 32.0297 290.648 31.789C291.205 31.5483 291.718 31.1557 292.187 30.611L294.41 32.796C293.663 33.6953 292.801 34.335 291.826 34.715C290.851 35.0823 289.768 35.266 288.577 35.266ZM286.24 39.484C285.873 39.484 285.524 39.446 285.195 39.37C284.866 39.294 284.587 39.199 284.359 39.085L285.119 37.66C285.271 37.736 285.455 37.7993 285.67 37.85C285.885 37.9007 286.113 37.926 286.354 37.926C286.671 37.926 286.905 37.8753 287.057 37.774C287.222 37.6727 287.31 37.546 287.323 37.394C287.336 37.242 287.285 37.1217 287.171 37.033C287.057 36.957 286.861 36.919 286.582 36.919H285.841L286.772 34.829H288.653L288.159 35.969C288.653 36.045 289.008 36.2287 289.223 36.52C289.451 36.8113 289.533 37.1407 289.47 37.508C289.394 38.116 289.065 38.5973 288.482 38.952C287.899 39.3067 287.152 39.484 286.24 39.484ZM293.528 35L302.059 21.7H305.764L308.975 35H305.232L302.857 23.486H304.339L297.499 35H293.528ZM297.252 32.416L298.772 29.642H305.27L305.688 32.416H297.252Z" fill="url(#paint2_linear_77_12)"></path><defs><radialGradient id="paint0_radial_77_12" cx="0" cy="0" r="1" gradientUnits="userSpaceOnUse" gradientTransform="translate(164 26.5) rotate(1.6931) scale(236.919 30.5325)"><stop stop-color="#0AE22E"></stop><stop offset="1" stop-color="#07C529"></stop></radialGradient><radialGradient id="paint1_radial_77_12" cx="0" cy="0" r="1" gradientUnits="userSpaceOnUse" gradientTransform="translate(165 26.5) rotate(1.70348) scale(235.476 30.5324)"><stop stop-color="#0AE22E"></stop><stop offset="1" stop-color="#07C529"></stop></radialGradient><linearGradient id="paint2_linear_77_12" x1="138.178" y1="41.8824" x2="138.178" y2="28.8824" gradientUnits="userSpaceOnUse"><stop stop-color="#BFBFBF"></stop><stop offset="1" stop-color="white"></stop></linearGradient></defs></svg>