<svg xmlns="http://www.w3.org/2000/svg" width="328" height="57" viewBox="0 0 328 57" fill="none"><rect width="328" height="57" rx="8" fill="url(#paint0_radial_77_12)"></rect><mask id="mask0_77_12" style="mask-type:alpha" maskUnits="userSpaceOnUse" x="2" y="0" width="326" height="57"><rect x="2" width="326" height="57" rx="8" fill="url(#paint1_radial_77_12)"></rect></mask><g mask="url(#mask0_77_12)"><ellipse cx="164.348" cy="-0.5" rx="193.644" ry="40.5" fill="white" fill-opacity="0.2"></ellipse></g><path d="M32.8984 35L41.4294 21.7H45.1344L48.3454 35H44.6024L42.2274 23.486H43.7094L36.8694 35H32.8984ZM36.6224 32.416L38.1424 29.642H44.6404L45.0584 32.416H36.6224ZM49.431 35L52.091 21.7H57.715C59.4376 21.7 60.7676 22.0737 61.705 22.821C62.6423 23.5683 63.111 24.6197 63.111 25.975C63.111 27.0897 62.845 28.065 62.313 28.901C61.781 29.737 61.021 30.383 60.033 30.839C59.045 31.295 57.8796 31.523 56.537 31.523H52.224L54.219 29.851L53.193 35H49.431ZM54.124 30.288L52.813 28.559H56.708C57.5313 28.559 58.171 28.3627 58.627 27.97C59.083 27.5773 59.311 27.02 59.311 26.298C59.311 25.7407 59.1273 25.329 58.76 25.063C58.3926 24.797 57.8796 24.664 57.221 24.664H53.611L55.606 22.878L54.124 30.288ZM63.2542 35L65.9142 21.7H71.5952C73.3052 21.7 74.6225 22.0737 75.5472 22.821C76.4845 23.5683 76.9532 24.607 76.9532 25.937C76.9532 27.0517 76.6809 28.027 76.1362 28.863C75.6042 29.6863 74.8442 30.326 73.8562 30.782C72.8682 31.238 71.7029 31.466 70.3602 31.466H66.0472L68.0422 29.851L67.0162 35H63.2542ZM71.5952 35L68.8782 30.155H72.7732L75.5282 35H71.5952ZM67.9472 30.288L66.6362 28.559H70.5312C71.3672 28.559 72.0132 28.3627 72.4692 27.97C72.9252 27.5773 73.1532 27.02 73.1532 26.298C73.1532 25.7407 72.9695 25.329 72.6022 25.063C72.2349 24.797 71.7219 24.664 71.0632 24.664H67.4342L69.4482 22.878L67.9472 30.288ZM84.5006 35.266C83.1326 35.266 81.9546 35.019 80.9666 34.525C79.9786 34.0183 79.2186 33.328 78.6866 32.454C78.1546 31.58 77.8886 30.5667 77.8886 29.414C77.8886 28.2487 78.0913 27.1847 78.4966 26.222C78.902 25.2467 79.472 24.4043 80.2066 23.695C80.9413 22.973 81.8153 22.4157 82.8286 22.023C83.8546 21.6303 84.9756 21.434 86.1916 21.434C87.5596 21.434 88.7376 21.6873 89.7256 22.194C90.7136 22.688 91.4736 23.372 92.0056 24.246C92.5376 25.12 92.8036 26.1333 92.8036 27.286C92.8036 28.4513 92.601 29.5217 92.1956 30.497C91.7903 31.4597 91.2203 32.302 90.4856 33.024C89.751 33.7333 88.8706 34.2843 87.8446 34.677C86.8313 35.0697 85.7166 35.266 84.5006 35.266ZM84.8236 32.15C85.4823 32.15 86.065 32.0297 86.5716 31.789C87.091 31.5483 87.528 31.2127 87.8826 30.782C88.25 30.3387 88.5286 29.8383 88.7186 29.281C88.9086 28.7237 89.0036 28.1347 89.0036 27.514C89.0036 26.9187 88.877 26.3993 88.6236 25.956C88.383 25.5127 88.0283 25.1707 87.5596 24.93C87.1036 24.6767 86.54 24.55 85.8686 24.55C85.2226 24.55 84.64 24.6703 84.1206 24.911C83.6013 25.1517 83.158 25.4937 82.7906 25.937C82.436 26.3677 82.1636 26.8617 81.9736 27.419C81.7836 27.9763 81.6886 28.5653 81.6886 29.186C81.6886 29.7687 81.809 30.288 82.0496 30.744C82.303 31.1873 82.6576 31.5357 83.1136 31.789C83.5823 32.0297 84.1523 32.15 84.8236 32.15ZM97.0267 35L94.0057 21.7H97.8627L100.409 33.233H97.9577L105.197 21.7H109.073L100.732 35H97.0267ZM112.283 26.849H118.458L117.907 29.661H111.732L112.283 26.849ZM111.504 32.093H118.477L117.869 35H107.21L109.87 21.7H120.282L119.693 24.607H112.986L111.504 32.093ZM119.976 35L122.636 21.7H126.398L123.738 35H119.976ZM129.226 35L131.297 24.683H127.212L127.82 21.7H139.733L139.125 24.683H135.059L132.988 35H129.226ZM136.211 35L144.742 21.7H148.447L151.658 35H147.915L145.54 23.486H147.022L140.182 35H136.211ZM139.935 32.416L141.455 29.642H147.953L148.371 32.416H139.935ZM152.743 35L155.403 21.7H161.084C162.794 21.7 164.112 22.0737 165.036 22.821C165.974 23.5683 166.442 24.607 166.442 25.937C166.442 27.0517 166.17 28.027 165.625 28.863C165.093 29.6863 164.333 30.326 163.345 30.782C162.357 31.238 161.192 31.466 159.849 31.466H155.536L157.531 29.851L156.505 35H152.743ZM161.084 35L158.367 30.155H162.262L165.017 35H161.084ZM157.436 30.288L156.125 28.559H160.02C160.856 28.559 161.502 28.3627 161.958 27.97C162.414 27.5773 162.642 27.02 162.642 26.298C162.642 25.7407 162.459 25.329 162.091 25.063C161.724 24.797 161.211 24.664 160.552 24.664H156.923L158.937 22.878L157.436 30.288ZM172.337 35L174.997 21.7H180.621C182.344 21.7 183.674 22.0737 184.611 22.821C185.549 23.5683 186.017 24.6197 186.017 25.975C186.017 27.0897 185.751 28.065 185.219 28.901C184.687 29.737 183.927 30.383 182.939 30.839C181.951 31.295 180.786 31.523 179.443 31.523H175.13L177.125 29.851L176.099 35H172.337ZM177.03 30.288L175.719 28.559H179.614C180.438 28.559 181.077 28.3627 181.533 27.97C181.989 27.5773 182.217 27.02 182.217 26.298C182.217 25.7407 182.034 25.329 181.666 25.063C181.299 24.797 180.786 24.664 180.127 24.664H176.517L178.512 22.878L177.03 30.288ZM186.16 35L188.82 21.7H194.501C196.211 21.7 197.529 22.0737 198.453 22.821C199.391 23.5683 199.859 24.607 199.859 25.937C199.859 27.0517 199.587 28.027 199.042 28.863C198.51 29.6863 197.75 30.326 196.762 30.782C195.774 31.238 194.609 31.466 193.266 31.466H188.953L190.948 29.851L189.922 35H186.16ZM194.501 35L191.784 30.155H195.679L198.434 35H194.501ZM190.853 30.288L189.542 28.559H193.437C194.273 28.559 194.919 28.3627 195.375 27.97C195.831 27.5773 196.059 27.02 196.059 26.298C196.059 25.7407 195.876 25.329 195.508 25.063C195.141 24.797 194.628 24.664 193.969 24.664H190.34L192.354 22.878L190.853 30.288ZM207.407 35.266C206.039 35.266 204.861 35.019 203.873 34.525C202.885 34.0183 202.125 33.328 201.593 32.454C201.061 31.58 200.795 30.5667 200.795 29.414C200.795 28.2487 200.998 27.1847 201.403 26.222C201.808 25.2467 202.378 24.4043 203.113 23.695C203.848 22.973 204.722 22.4157 205.735 22.023C206.761 21.6303 207.882 21.434 209.098 21.434C210.466 21.434 211.644 21.6873 212.632 22.194C213.62 22.688 214.38 23.372 214.912 24.246C215.444 25.12 215.71 26.1333 215.71 27.286C215.71 28.4513 215.507 29.5217 215.102 30.497C214.697 31.4597 214.127 32.302 213.392 33.024C212.657 33.7333 211.777 34.2843 210.751 34.677C209.738 35.0697 208.623 35.266 207.407 35.266ZM207.73 32.15C208.389 32.15 208.971 32.0297 209.478 31.789C209.997 31.5483 210.434 31.2127 210.789 30.782C211.156 30.3387 211.435 29.8383 211.625 29.281C211.815 28.7237 211.91 28.1347 211.91 27.514C211.91 26.9187 211.783 26.3993 211.53 25.956C211.289 25.5127 210.935 25.1707 210.466 24.93C210.01 24.6767 209.446 24.55 208.775 24.55C208.129 24.55 207.546 24.6703 207.027 24.911C206.508 25.1517 206.064 25.4937 205.697 25.937C205.342 26.3677 205.07 26.8617 204.88 27.419C204.69 27.9763 204.595 28.5653 204.595 29.186C204.595 29.7687 204.715 30.288 204.956 30.744C205.209 31.1873 205.564 31.5357 206.02 31.789C206.489 32.0297 207.059 32.15 207.73 32.15ZM216.293 35L218.953 21.7H222.012L225.679 30.763H224.064L231.17 21.7H234.381L231.759 35H228.282L229.859 26.944L230.486 26.925L225.223 33.689H223.57L220.701 26.906L221.366 26.963L219.751 35H216.293ZM241.603 35.266C240.235 35.266 239.057 35.019 238.069 34.525C237.081 34.0183 236.321 33.328 235.789 32.454C235.257 31.58 234.991 30.5667 234.991 29.414C234.991 28.2487 235.194 27.1847 235.599 26.222C236.005 25.2467 236.575 24.4043 237.309 23.695C238.044 22.973 238.918 22.4157 239.931 22.023C240.957 21.6303 242.078 21.434 243.294 21.434C244.662 21.434 245.84 21.6873 246.828 22.194C247.816 22.688 248.576 23.372 249.108 24.246C249.64 25.12 249.906 26.1333 249.906 27.286C249.906 28.4513 249.704 29.5217 249.298 30.497C248.893 31.4597 248.323 32.302 247.588 33.024C246.854 33.7333 245.973 34.2843 244.947 34.677C243.934 35.0697 242.819 35.266 241.603 35.266ZM241.926 32.15C242.585 32.15 243.168 32.0297 243.674 31.789C244.194 31.5483 244.631 31.2127 244.985 30.782C245.353 30.3387 245.631 29.8383 245.821 29.281C246.011 28.7237 246.106 28.1347 246.106 27.514C246.106 26.9187 245.98 26.3993 245.726 25.956C245.486 25.5127 245.131 25.1707 244.662 24.93C244.206 24.6767 243.643 24.55 242.971 24.55C242.325 24.55 241.743 24.6703 241.223 24.911C240.704 25.1517 240.261 25.4937 239.893 25.937C239.539 26.3677 239.266 26.8617 239.076 27.419C238.886 27.9763 238.791 28.5653 238.791 29.186C238.791 29.7687 238.912 30.288 239.152 30.744C239.406 31.1873 239.76 31.5357 240.216 31.789C240.685 32.0297 241.255 32.15 241.926 32.15ZM257.748 35.266C256.392 35.266 255.208 35.019 254.195 34.525C253.194 34.031 252.421 33.347 251.877 32.473C251.332 31.5863 251.06 30.5667 251.06 29.414C251.06 28.2613 251.262 27.1973 251.668 26.222C252.073 25.2467 252.643 24.4043 253.378 23.695C254.112 22.973 254.986 22.4157 256 22.023C257.026 21.6303 258.159 21.434 259.401 21.434C260.629 21.434 261.719 21.6493 262.669 22.08C263.619 22.5107 264.328 23.1313 264.797 23.942L262.08 26.108C261.776 25.6013 261.377 25.215 260.883 24.949C260.401 24.683 259.825 24.55 259.154 24.55C258.508 24.55 257.919 24.664 257.387 24.892C256.867 25.12 256.418 25.443 256.038 25.861C255.658 26.279 255.366 26.773 255.164 27.343C254.961 27.9003 254.86 28.5083 254.86 29.167C254.86 29.7623 254.986 30.288 255.24 30.744C255.506 31.1873 255.879 31.5357 256.361 31.789C256.855 32.0297 257.437 32.15 258.109 32.15C258.704 32.15 259.274 32.0297 259.819 31.789C260.376 31.5483 260.889 31.1557 261.358 30.611L263.581 32.796C262.833 33.6953 261.972 34.335 260.997 34.715C260.021 35.0823 258.938 35.266 257.748 35.266ZM255.411 39.484C255.043 39.484 254.695 39.446 254.366 39.37C254.036 39.294 253.758 39.199 253.53 39.085L254.29 37.66C254.442 37.736 254.625 37.7993 254.841 37.85C255.056 37.9007 255.284 37.926 255.525 37.926C255.841 37.926 256.076 37.8753 256.228 37.774C256.392 37.6727 256.481 37.546 256.494 37.394C256.506 37.242 256.456 37.1217 256.342 37.033C256.228 36.957 256.031 36.919 255.753 36.919H255.012L255.943 34.829H257.824L257.33 35.969C257.824 36.045 258.178 36.2287 258.394 36.52C258.622 36.8113 258.704 37.1407 258.641 37.508C258.565 38.116 258.235 38.5973 257.653 38.952C257.07 39.3067 256.323 39.484 255.411 39.484ZM262.698 35L271.229 21.7H274.934L278.145 35H274.402L272.027 23.486H273.509L266.669 35H262.698ZM266.422 32.416L267.942 29.642H274.44L274.858 32.416H266.422ZM274.934 20.75C274.592 20.75 274.288 20.693 274.022 20.579C273.769 20.4523 273.541 20.313 273.338 20.161C273.136 20.009 272.946 19.876 272.768 19.762C272.591 19.6353 272.407 19.572 272.217 19.572C271.964 19.572 271.749 19.667 271.571 19.857C271.407 20.0343 271.293 20.275 271.229 20.579H269.462C269.627 19.591 269.95 18.8437 270.431 18.337C270.913 17.8177 271.514 17.558 272.236 17.558C272.578 17.558 272.876 17.615 273.129 17.729C273.383 17.843 273.611 17.9823 273.813 18.147C274.016 18.299 274.206 18.432 274.383 18.546C274.573 18.66 274.763 18.717 274.953 18.717C275.207 18.717 275.416 18.6283 275.58 18.451C275.758 18.2737 275.872 18.0457 275.922 17.767H277.689C277.537 18.717 277.221 19.4517 276.739 19.971C276.258 20.4903 275.656 20.75 274.934 20.75ZM286.227 35.266C284.859 35.266 283.681 35.019 282.693 34.525C281.705 34.0183 280.945 33.328 280.413 32.454C279.881 31.58 279.615 30.5667 279.615 29.414C279.615 28.2487 279.818 27.1847 280.223 26.222C280.629 25.2467 281.199 24.4043 281.933 23.695C282.668 22.973 283.542 22.4157 284.555 22.023C285.581 21.6303 286.702 21.434 287.918 21.434C289.286 21.434 290.464 21.6873 291.452 22.194C292.44 22.688 293.2 23.372 293.732 24.246C294.264 25.12 294.53 26.1333 294.53 27.286C294.53 28.4513 294.328 29.5217 293.922 30.497C293.517 31.4597 292.947 32.302 292.212 33.024C291.478 33.7333 290.597 34.2843 289.571 34.677C288.558 35.0697 287.443 35.266 286.227 35.266ZM286.55 32.15C287.209 32.15 287.792 32.0297 288.298 31.789C288.818 31.5483 289.255 31.2127 289.609 30.782C289.977 30.3387 290.255 29.8383 290.445 29.281C290.635 28.7237 290.73 28.1347 290.73 27.514C290.73 26.9187 290.604 26.3993 290.35 25.956C290.11 25.5127 289.755 25.1707 289.286 24.93C288.83 24.6767 288.267 24.55 287.595 24.55C286.949 24.55 286.367 24.6703 285.847 24.911C285.328 25.1517 284.885 25.4937 284.517 25.937C284.163 26.3677 283.89 26.8617 283.7 27.419C283.51 27.9763 283.415 28.5653 283.415 29.186C283.415 29.7687 283.536 30.288 283.776 30.744C284.03 31.1873 284.384 31.5357 284.84 31.789C285.309 32.0297 285.879 32.15 286.55 32.15Z" fill="url(#paint2_linear_77_12)"></path><defs><radialGradient id="paint0_radial_77_12" cx="0" cy="0" r="1" gradientUnits="userSpaceOnUse" gradientTransform="translate(164 26.5) rotate(1.6931) scale(236.919 30.5325)"><stop stop-color="#0AE22E"></stop><stop offset="1" stop-color="#07C529"></stop></radialGradient><radialGradient id="paint1_radial_77_12" cx="0" cy="0" r="1" gradientUnits="userSpaceOnUse" gradientTransform="translate(165 26.5) rotate(1.70348) scale(235.476 30.5324)"><stop stop-color="#0AE22E"></stop><stop offset="1" stop-color="#07C529"></stop></radialGradient><linearGradient id="paint2_linear_77_12" x1="141.42" y1="41.8824" x2="141.42" y2="28.8824" gradientUnits="userSpaceOnUse"><stop stop-color="#BFBFBF"></stop><stop offset="1" stop-color="white"></stop></linearGradient></defs></svg>