<svg xmlns="http://www.w3.org/2000/svg" width="50" height="50" viewBox="0 0 50 50" fill="none"><rect width="50" height="50" rx="10" fill="#D81D1E"></rect><path d="M17.5047 29.0902H16.6229V29.972V33.0906C16.4803 33.0424 16.3259 32.9877 16.1618 32.9259C15.2227 32.5727 13.9743 31.9941 12.7308 31.0946C10.2666 29.312 7.80515 26.2666 7.80515 21.0929C7.80515 16.6762 11.3856 13.0957 15.8023 13.0957H22.7342C27.1509 13.0957 30.7314 16.6762 30.7314 21.0929C30.7314 25.5097 27.1509 29.0902 22.7342 29.0902H17.5047Z" stroke="white" stroke-width="1.76355"></path><mask id="mask0_45_56" style="mask-type:luminance" maskUnits="userSpaceOnUse" x="23" y="19" width="20" height="18"><path fill-rule="evenodd" clip-rule="evenodd" d="M23.2225 28.8025C24.2152 31.5284 26.8297 33.475 29.8989 33.475H32.4953V36.9041C32.4953 36.9041 42.1949 35.1896 42.1949 26.3718C42.1949 22.4488 39.0146 19.2686 35.0916 19.2686H29.8989C29.8659 19.2686 29.833 19.2688 29.8002 19.2693C29.8329 19.5789 29.8496 19.8933 29.8496 20.2115C29.8496 24.3373 27.0358 27.8058 23.2225 28.8025Z" fill="white"></path></mask><g mask="url(#mask0_45_56)"><path d="M23.2225 28.8024L22.7765 27.0962L20.9027 27.586L21.5654 29.4059L23.2225 28.8024ZM32.4953 33.4749H34.2589V31.7113H32.4953V33.4749ZM32.4953 36.904H30.7318V39.0066L32.8023 38.6407L32.4953 36.904ZM29.8002 19.2691L29.7762 17.5057L27.8437 17.532L28.0464 19.4541L29.8002 19.2691ZM21.5654 29.4059C22.8036 32.8059 26.0649 35.2384 29.8989 35.2384V31.7113C27.5945 31.7113 25.6268 30.2506 24.8796 28.1989L21.5654 29.4059ZM29.8989 35.2384H32.4953V31.7113H29.8989V35.2384ZM30.7318 33.4749V36.904H34.2589V33.4749H30.7318ZM32.4953 36.904C32.8023 38.6407 32.8031 38.6405 32.8038 38.6403C32.8042 38.6403 32.8051 38.6401 32.8057 38.6401C32.807 38.6398 32.8084 38.6395 32.81 38.6393C32.8133 38.6386 32.8171 38.638 32.8214 38.6371C32.8302 38.6356 32.8413 38.6335 32.8546 38.6309C32.8814 38.6258 32.9173 38.6187 32.9618 38.6095C33.0507 38.5911 33.1738 38.5642 33.3264 38.5273C33.6311 38.4536 34.0558 38.3397 34.5609 38.1739C35.565 37.8442 36.9187 37.2993 38.2865 36.4358C41.0493 34.6916 43.9584 31.5662 43.9584 26.3717H40.4313C40.4313 29.9948 38.4906 32.1357 36.4036 33.4533C35.3465 34.1206 34.2754 34.5553 33.4608 34.8227C33.0565 34.9555 32.7234 35.0443 32.4977 35.0989C32.3851 35.1262 32.2998 35.1447 32.2467 35.1557C32.22 35.1612 32.2014 35.1648 32.1915 35.1667C32.1866 35.1677 32.1838 35.1681 32.1832 35.1683C32.1829 35.1683 32.1832 35.1683 32.184 35.1681C32.1845 35.168 32.185 35.168 32.1857 35.1678C32.1861 35.1678 32.1867 35.1676 32.1869 35.1676C32.1876 35.1675 32.1883 35.1673 32.4953 36.904ZM43.9584 26.3717C43.9584 21.4746 39.9886 17.5049 35.0916 17.5049V21.032C38.0406 21.032 40.4313 23.4227 40.4313 26.3717H43.9584ZM35.0916 17.5049H29.8989V21.032H35.0916V17.5049ZM29.8989 17.5049C29.858 17.5049 29.8171 17.5051 29.7762 17.5057L29.8242 21.0325C29.8491 21.0322 29.874 21.032 29.8989 21.032V17.5049ZM28.0464 19.4541C28.0726 19.7025 28.0861 19.9551 28.0861 20.2114H31.6132C31.6132 19.8313 31.5932 19.4551 31.554 19.0841L28.0464 19.4541ZM28.0861 20.2114C28.0861 23.5153 25.8329 26.2973 22.7765 27.0962L23.6685 30.5086C28.2387 29.314 31.6132 25.159 31.6132 20.2114H28.0861Z" fill="white"></path></g></svg>