<svg xmlns="http://www.w3.org/2000/svg" width="162" height="15" viewBox="0 0 162 15" fill="none"><path d="M19.1575 4.56962V3.21205H25.5537V4.56962H23.1694V11H21.5418V4.56962H19.1575ZM26.9977 11H25.2333L27.9218 3.21205H30.0437L32.7284 11H30.964L29.0132 4.99172H28.9523L26.9977 11ZM26.8875 7.93882H31.0552V9.22413H26.8875V7.93882ZM35.2097 3.21205L36.7802 5.86634H36.841L38.4192 3.21205H40.2787L37.902 7.10603L40.3319 11H38.4382L36.841 8.34191H36.7802L35.1831 11H33.2969L35.7345 7.10603L33.3425 3.21205H35.2097ZM42.663 11H40.8985L43.5871 3.21205H45.709L48.3937 11H46.6292L44.6784 4.99172H44.6176L42.663 11ZM42.5527 7.93882H46.7205V9.22413H42.5527V7.93882ZM54.5702 11H51.8095V3.21205H54.593C55.3764 3.21205 56.0507 3.36796 56.6161 3.67978C57.1814 3.98907 57.6162 4.43399 57.9204 5.01453C58.2272 5.59508 58.3805 6.28971 58.3805 7.09842C58.3805 7.90966 58.2272 8.60683 57.9204 9.18991C57.6162 9.77299 57.1789 10.2204 56.6085 10.5323C56.0406 10.8441 55.3612 11 54.5702 11ZM53.456 9.58919H54.5018C54.9885 9.58919 55.3979 9.503 55.7301 9.33061C56.0647 9.15569 56.3157 8.88569 56.483 8.52063C56.6528 8.15304 56.7378 7.67897 56.7378 7.09842C56.7378 6.52294 56.6528 6.05267 56.483 5.68761C56.3157 5.32255 56.066 5.05383 55.7339 4.88144C55.4018 4.70905 54.9923 4.62286 54.5056 4.62286H53.456V9.58919ZM59.6003 11V3.21205H64.848V4.56962H61.2468V6.42534H64.578V7.78291H61.2468V9.64243H64.8632V11H59.6003ZM68.6355 11V3.21205H73.8832V4.56962H70.2821V6.42534H73.6132V7.78291H70.2821V9.64243H73.8984V11H68.6355ZM81.7064 3.21205V11H80.2841L76.8959 6.09831H76.8389V11H75.1923V3.21205H76.6374L79.9989 8.10994H80.0674V3.21205H81.7064ZM84.4738 3.21205L86.3561 9.12907H86.4284L88.3145 3.21205H90.1398L87.4551 11H85.3332L82.6447 3.21205H84.4738ZM92.7238 3.21205V11H91.0772V3.21205H92.7238ZM101.235 7.10603C101.235 7.9553 101.074 8.67781 100.752 9.27357C100.433 9.86933 99.9968 10.3244 99.4441 10.6387C98.894 10.9506 98.2754 11.1065 97.5884 11.1065C96.8963 11.1065 96.2752 10.9493 95.7251 10.6349C95.1749 10.3206 94.7401 9.86552 94.4207 9.26977C94.1013 8.67401 93.9416 7.95276 93.9416 7.10603C93.9416 6.25675 94.1013 5.53424 94.4207 4.93848C94.7401 4.34272 95.1749 3.88893 95.7251 3.57711C96.2752 3.26275 96.8963 3.10557 97.5884 3.10557C98.2754 3.10557 98.894 3.26275 99.4441 3.57711C99.9968 3.88893 100.433 4.34272 100.752 4.93848C101.074 5.53424 101.235 6.25675 101.235 7.10603ZM99.5658 7.10603C99.5658 6.5559 99.4834 6.09197 99.3186 5.71423C99.1564 5.3365 98.9269 5.05003 98.6303 4.85482C98.3337 4.65962 97.9864 4.56201 97.5884 4.56201C97.1904 4.56201 96.843 4.65962 96.5464 4.85482C96.2498 5.05003 96.0191 5.3365 95.8543 5.71423C95.6921 6.09197 95.611 6.5559 95.611 7.10603C95.611 7.65615 95.6921 8.12008 95.8543 8.49782C96.0191 8.87555 96.2498 9.16202 96.5464 9.35723C96.843 9.55244 97.1904 9.65004 97.5884 9.65004C97.9864 9.65004 98.3337 9.55244 98.6303 9.35723C98.9269 9.16202 99.1564 8.87555 99.3186 8.49782C99.4834 8.12008 99.5658 7.65615 99.5658 7.10603ZM103.371 10.095C103.12 10.095 102.905 10.0062 102.725 9.82877C102.547 9.65131 102.459 9.43582 102.459 9.1823C102.459 8.93386 102.547 8.72091 102.725 8.54345C102.905 8.36599 103.12 8.27726 103.371 8.27726C103.615 8.27726 103.828 8.36599 104.01 8.54345C104.193 8.72091 104.284 8.93386 104.284 9.1823C104.284 9.34962 104.241 9.503 104.155 9.64243C104.071 9.77933 103.961 9.88961 103.824 9.97327C103.687 10.0544 103.536 10.095 103.371 10.095ZM103.371 6.27323C103.12 6.27323 102.905 6.1845 102.725 6.00704C102.547 5.82958 102.459 5.6141 102.459 5.36058C102.459 5.11214 102.547 4.90045 102.725 4.72553C102.905 4.54807 103.12 4.45934 103.371 4.45934C103.615 4.45934 103.828 4.54807 104.01 4.72553C104.193 4.90045 104.284 5.11214 104.284 5.36058C104.284 5.53044 104.241 5.68508 104.155 5.82451C104.071 5.96141 103.961 6.07042 103.824 6.15155C103.687 6.23267 103.536 6.27323 103.371 6.27323ZM110.404 9.81355V4.42892H111.766V9.81355H110.404ZM108.393 7.80192V6.44055H113.777V7.80192H108.393ZM117.88 11V3.21205H120.952C121.54 3.21205 122.042 3.31726 122.458 3.52768C122.876 3.73556 123.195 4.0309 123.413 4.41371C123.633 4.79398 123.743 5.24143 123.743 5.75606C123.743 6.27323 123.632 6.71815 123.409 7.09081C123.186 7.46094 122.862 7.74488 122.439 7.94262C122.018 8.14036 121.509 8.23923 120.91 8.23923H118.853V6.91589H120.644C120.959 6.91589 121.22 6.87279 121.428 6.7866C121.635 6.7004 121.79 6.57111 121.891 6.39872C121.995 6.22633 122.047 6.01211 122.047 5.75606C122.047 5.49748 121.995 5.27946 121.891 5.102C121.79 4.92454 121.634 4.79017 121.424 4.69891C121.216 4.60511 120.953 4.55821 120.637 4.55821H119.526V11H117.88ZM122.085 7.45587L124.021 11H122.203L120.31 7.45587H122.085ZM127.478 11.9735V2.23856H128.101V11.9735H127.478ZM129.132 5.45185C129.101 5.14509 128.971 4.90679 128.74 4.73694C128.509 4.56708 128.196 4.48216 127.801 4.48216C127.532 4.48216 127.305 4.52018 127.12 4.59624C126.935 4.66976 126.793 4.77243 126.694 4.90426C126.598 5.03608 126.55 5.18566 126.55 5.35298C126.545 5.49241 126.574 5.6141 126.637 5.71804C126.703 5.82198 126.793 5.91197 126.907 5.98803C127.021 6.06155 127.153 6.12619 127.303 6.18197C127.452 6.2352 127.612 6.28084 127.782 6.31886L128.482 6.48618C128.821 6.56224 129.133 6.66364 129.417 6.7904C129.701 6.91716 129.947 7.07307 130.155 7.25813C130.363 7.4432 130.524 7.66122 130.638 7.9122C130.754 8.16318 130.814 8.45092 130.816 8.77541C130.814 9.25202 130.692 9.66525 130.451 10.0151C130.213 10.3624 129.868 10.6324 129.417 10.8251C128.968 11.0152 128.427 11.1103 127.793 11.1103C127.165 11.1103 126.617 11.0139 126.151 10.8213C125.687 10.6286 125.324 10.3434 125.063 9.96566C124.804 9.58539 124.669 9.11512 124.656 8.55486H126.249C126.267 8.81598 126.342 9.034 126.474 9.20892C126.608 9.38131 126.787 9.51187 127.01 9.6006C127.236 9.6868 127.49 9.72989 127.774 9.72989C128.053 9.72989 128.295 9.68933 128.501 9.60821C128.708 9.52708 128.869 9.41427 128.984 9.26977C129.098 9.12526 129.155 8.95921 129.155 8.77161C129.155 8.59669 129.103 8.44965 128.999 8.3305C128.897 8.21135 128.748 8.10994 128.55 8.02628C128.355 7.94262 128.115 7.86657 127.831 7.79812L126.983 7.58517C126.327 7.42545 125.808 7.17574 125.428 6.83603C125.048 6.49632 124.859 6.03873 124.861 5.46325C124.859 4.99172 124.984 4.57976 125.238 4.22737C125.494 3.87499 125.845 3.59993 126.291 3.40219C126.737 3.20445 127.244 3.10557 127.812 3.10557C128.39 3.10557 128.895 3.20445 129.326 3.40219C129.759 3.59993 130.096 3.87499 130.337 4.22737C130.578 4.57976 130.702 4.98792 130.71 5.45185H129.132ZM135.267 3.21205V11H133.62V4.77496H133.574L131.791 5.89296V4.43272L133.719 3.21205H135.267ZM139.935 3.10557C140.336 3.10557 140.721 3.17276 141.091 3.30712C141.464 3.44148 141.796 3.6557 142.088 3.94978C142.382 4.24385 142.614 4.63426 142.784 5.12101C142.956 5.60522 143.043 6.19971 143.046 6.90448C143.046 7.56615 142.971 8.15684 142.822 8.67654C142.675 9.19371 142.463 9.63356 142.187 9.99608C141.91 10.3586 141.577 10.6349 141.186 10.8251C140.796 11.0127 140.36 11.1065 139.878 11.1065C139.359 11.1065 138.9 11.0063 138.502 10.8061C138.104 10.6033 137.783 10.3282 137.54 9.98087C137.299 9.63102 137.153 9.23808 137.102 8.80203H138.726C138.789 9.08597 138.923 9.30653 139.125 9.46371C139.328 9.61835 139.579 9.69567 139.878 9.69567C140.385 9.69567 140.771 9.47511 141.034 9.034C141.298 8.59035 141.431 7.98318 141.434 7.2125H141.38C141.264 7.44066 141.107 7.63714 140.909 7.80192C140.711 7.96417 140.484 8.08966 140.228 8.17839C139.975 8.26712 139.705 8.31148 139.418 8.31148C138.959 8.31148 138.55 8.20374 138.19 7.98825C137.83 7.77277 137.546 7.47616 137.338 7.09842C137.13 6.72068 137.026 6.28971 137.026 5.8055C137.024 5.28326 137.144 4.81806 137.388 4.4099C137.631 4.00175 137.971 3.68232 138.407 3.45162C138.845 3.21839 139.355 3.10304 139.935 3.10557ZM139.947 4.3985C139.691 4.3985 139.463 4.45934 139.262 4.58103C139.065 4.70271 138.907 4.86623 138.791 5.07158C138.677 5.27692 138.621 5.50635 138.623 5.75987C138.623 6.01592 138.679 6.24661 138.791 6.45196C138.905 6.65477 139.059 6.81702 139.255 6.93871C139.452 7.05786 139.678 7.11743 139.932 7.11743C140.122 7.11743 140.298 7.08194 140.46 7.01096C140.622 6.93997 140.763 6.84237 140.882 6.71815C141.004 6.59139 141.099 6.44562 141.167 6.28084C141.236 6.11605 141.27 5.94113 141.27 5.75606C141.268 5.51015 141.209 5.28453 141.095 5.07918C140.981 4.87383 140.824 4.70905 140.624 4.58483C140.423 4.46061 140.198 4.3985 139.947 4.3985ZM145.649 9.93524L145.607 10.3535C145.574 10.6882 145.511 11.0215 145.417 11.3537C145.326 11.6883 145.229 11.9912 145.128 12.2625C145.029 12.5338 144.949 12.7467 144.888 12.9014H143.839C143.877 12.7518 143.929 12.5426 143.995 12.2739C144.061 12.0077 144.123 11.7086 144.181 11.3765C144.239 11.0444 144.276 10.7059 144.291 10.3611L144.31 9.93524H145.649ZM149.786 3.10557C150.187 3.10557 150.572 3.17276 150.942 3.30712C151.315 3.44148 151.647 3.6557 151.939 3.94978C152.233 4.24385 152.465 4.63426 152.634 5.12101C152.807 5.60522 152.894 6.19971 152.897 6.90448C152.897 7.56615 152.822 8.15684 152.673 8.67654C152.525 9.19371 152.314 9.63356 152.037 9.99608C151.761 10.3586 151.428 10.6349 151.037 10.8251C150.647 11.0127 150.211 11.1065 149.729 11.1065C149.21 11.1065 148.751 11.0063 148.353 10.8061C147.955 10.6033 147.634 10.3282 147.391 9.98087C147.15 9.63102 147.004 9.23808 146.953 8.80203H148.577C148.64 9.08597 148.773 9.30653 148.976 9.46371C149.179 9.61835 149.43 9.69567 149.729 9.69567C150.236 9.69567 150.622 9.47511 150.885 9.034C151.149 8.59035 151.282 7.98318 151.285 7.2125H151.231C151.115 7.44066 150.958 7.63714 150.76 7.80192C150.562 7.96417 150.335 8.08966 150.079 8.17839C149.826 8.26712 149.556 8.31148 149.269 8.31148C148.81 8.31148 148.401 8.20374 148.041 7.98825C147.681 7.77277 147.397 7.47616 147.189 7.09842C146.981 6.72068 146.877 6.28971 146.877 5.8055C146.875 5.28326 146.995 4.81806 147.238 4.4099C147.482 4.00175 147.822 3.68232 148.258 3.45162C148.696 3.21839 149.206 3.10304 149.786 3.10557ZM149.798 4.3985C149.542 4.3985 149.313 4.45934 149.113 4.58103C148.915 4.70271 148.758 4.86623 148.642 5.07158C148.528 5.27692 148.472 5.50635 148.474 5.75987C148.474 6.01592 148.53 6.24661 148.642 6.45196C148.756 6.65477 148.91 6.81702 149.106 6.93871C149.303 7.05786 149.529 7.11743 149.782 7.11743C149.973 7.11743 150.149 7.08194 150.311 7.01096C150.473 6.93997 150.614 6.84237 150.733 6.71815C150.855 6.59139 150.95 6.44562 151.018 6.28084C151.087 6.11605 151.121 5.94113 151.121 5.75606C151.118 5.51015 151.06 5.28453 150.946 5.07918C150.832 4.87383 150.675 4.70905 150.475 4.58483C150.274 4.46061 150.049 4.3985 149.798 4.3985ZM157.091 11.1711C156.437 11.1686 155.874 11.0076 155.403 10.6882C154.934 10.3688 154.573 9.90609 154.319 9.30019C154.068 8.69429 153.944 7.96544 153.946 7.11363C153.946 6.26436 154.072 5.54058 154.323 4.94228C154.576 4.34399 154.938 3.88893 155.407 3.57711C155.878 3.26275 156.44 3.10557 157.091 3.10557C157.743 3.10557 158.303 3.26275 158.772 3.57711C159.244 3.89147 159.606 4.34779 159.86 4.94609C160.113 5.54184 160.239 6.26436 160.236 7.11363C160.236 7.96797 160.109 8.69809 159.856 9.30399C159.605 9.90989 159.245 10.3726 158.776 10.692C158.307 11.0114 157.745 11.1711 157.091 11.1711ZM157.091 9.80595C157.537 9.80595 157.894 9.58159 158.16 9.13287C158.426 8.68415 158.558 8.01107 158.555 7.11363C158.555 6.52294 158.494 6.03113 158.373 5.63818C158.254 5.24523 158.084 4.94989 157.863 4.75215C157.645 4.55441 157.388 4.45554 157.091 4.45554C156.648 4.45554 156.293 4.67736 156.027 5.12101C155.76 5.56466 155.626 6.22887 155.623 7.11363C155.623 7.71192 155.683 8.21135 155.802 8.6119C155.924 9.00992 156.095 9.30906 156.316 9.50934C156.536 9.70708 156.795 9.80595 157.091 9.80595Z" fill="#51CF66"></path><path d="M11.9015 4.64067H11.9014H11.106V3.42765C11.106 3.0571 10.9588 2.70173 10.6968 2.43971C10.4348 2.17769 10.0794 2.03049 9.70887 2.03049H1.87833C1.50778 2.03049 1.15241 2.17769 0.890392 2.43971C0.628375 2.70173 0.481174 3.0571 0.481174 3.42765V9.51806C0.481159 9.80734 0.570933 10.0895 0.738106 10.3256C0.892239 10.5432 1.10516 10.7118 1.3513 10.8121C1.34951 11.0336 1.38789 11.2537 1.46477 11.4618C1.5494 11.6909 1.67898 11.9008 1.84588 12.0791C2.01278 12.2573 2.21364 12.4005 2.43665 12.5C2.65966 12.5995 2.90032 12.6535 3.14448 12.6587C3.38864 12.6639 3.63138 12.6202 3.85842 12.5302C4.08546 12.4403 4.29222 12.3058 4.46655 12.1348C4.64088 11.9637 4.77925 11.7596 4.87354 11.5343C4.95594 11.3374 5.00322 11.1279 5.01348 10.9152H9.18409C9.20683 11.3676 9.39657 11.7969 9.71841 12.1187C10.062 12.4623 10.528 12.6553 11.014 12.6553C11.4999 12.6553 11.9659 12.4623 12.3095 12.1187C12.6314 11.7969 12.8211 11.3676 12.8438 10.9152H13.1891C13.5597 10.9152 13.915 10.768 14.1771 10.506C14.4391 10.244 14.5863 9.88862 14.5863 9.51807V7.64834C14.5863 7.64833 14.5863 7.64832 14.5863 7.64831C14.5864 7.33073 14.4783 7.02258 14.2798 6.77466L12.9913 5.16507C12.9913 5.16506 12.9913 5.16505 12.9913 5.16504C12.8605 5.00159 12.6947 4.86961 12.5061 4.77885C12.3175 4.68808 12.1108 4.64086 11.9015 4.64067ZM1.53537 9.51814V9.51807V3.42765C1.53537 3.33669 1.5715 3.24946 1.63582 3.18514C1.70014 3.12082 1.78737 3.08469 1.87833 3.08469H9.70887C9.79983 3.08469 9.88707 3.12082 9.95138 3.18514C10.0157 3.24946 10.0518 3.33669 10.0518 3.42765V9.26397C9.80905 9.41378 9.60459 9.61824 9.45477 9.86103H4.74262C4.5855 9.60638 4.36824 9.39384 4.1096 9.2423C3.83554 9.08172 3.52442 8.99514 3.2068 8.99108C2.88918 8.98701 2.57595 9.0656 2.29786 9.21912C2.04626 9.35802 1.83123 9.55394 1.66976 9.79067C1.63858 9.76679 1.61158 9.7376 1.59009 9.70427C1.55432 9.64878 1.53532 9.58416 1.53537 9.51814ZM13.4565 7.4335L13.4566 7.4336C13.5053 7.4943 13.5319 7.56977 13.5321 7.6476V9.51807C13.5321 9.60903 13.4959 9.69626 13.4316 9.76058C13.3673 9.8249 13.2801 9.86103 13.1891 9.86103H12.5732C12.414 9.60303 12.1931 9.38831 11.93 9.23645C11.6781 9.09102 11.3956 9.00786 11.106 8.99329V5.69487H11.9013C11.9527 5.69494 12.0034 5.70657 12.0497 5.72889C12.096 5.75121 12.1367 5.78365 12.1688 5.82382L12.1689 5.82388L13.4565 7.4335ZM2.6333 10.273C2.7792 10.1271 2.97709 10.0452 3.18342 10.0452C3.38976 10.0452 3.58764 10.1271 3.73355 10.273C3.87945 10.4189 3.96141 10.6168 3.96141 10.8232C3.96141 11.0295 3.87945 11.2274 3.73355 11.3733C3.58764 11.5192 3.38976 11.6012 3.18342 11.6012C2.97709 11.6012 2.7792 11.5192 2.6333 11.3733C2.4874 11.2274 2.40543 11.0295 2.40543 10.8232C2.40543 10.6168 2.4874 10.4189 2.6333 10.273ZM10.4638 10.273C10.6097 10.1271 10.8076 10.0452 11.014 10.0452C11.2203 10.0452 11.4182 10.1271 11.5641 10.273C11.71 10.4189 11.792 10.6168 11.792 10.8232C11.792 11.0295 11.71 11.2274 11.5641 11.3733C11.4182 11.5192 11.2203 11.6012 11.014 11.6012C10.8076 11.6012 10.6097 11.5192 10.4638 11.3733C10.3179 11.2274 10.236 11.0295 10.236 10.8232C10.236 10.6168 10.3179 10.4189 10.4638 10.273Z" fill="#51CF66" stroke="#51CF66" stroke-width="0.184136"></path></svg>