<svg xmlns="http://www.w3.org/2000/svg" width="96" height="15" viewBox="0 0 96 15" fill="none"><path d="M19.8809 11V3.21205H25.0373V4.56962H21.5274V6.42534H24.6951V7.78291H21.5274V11H19.8809ZM26.1449 11V3.21205H29.2175C29.8056 3.21205 30.3076 3.31726 30.7233 3.52768C31.1416 3.73556 31.4598 4.0309 31.6778 4.41371C31.8984 4.79398 32.0087 5.24143 32.0087 5.75606C32.0087 6.27323 31.8971 6.71815 31.674 7.09081C31.4509 7.46094 31.1277 7.74488 30.7043 7.94262C30.2835 8.14036 29.7739 8.23923 29.1756 8.23923H27.1184V6.91589H28.9094C29.2238 6.91589 29.4849 6.87279 29.6928 6.7866C29.9007 6.7004 30.0553 6.57111 30.1567 6.39872C30.2607 6.22633 30.3126 6.01211 30.3126 5.75606C30.3126 5.49748 30.2607 5.27946 30.1567 5.102C30.0553 4.92454 29.8994 4.79017 29.689 4.69891C29.4811 4.60511 29.2187 4.55821 28.9018 4.55821H27.7914V11H26.1449ZM30.3507 7.45587L32.2863 11H30.4686L28.5748 7.45587H30.3507ZM33.1723 11V3.21205H38.42V4.56962H34.8189V6.42534H38.15V7.78291H34.8189V9.64243H38.4352V11H33.1723ZM39.4325 4.56962V3.21205H45.8287V4.56962H43.4444V11H41.8168V4.56962H39.4325ZM46.882 11V3.21205H52.1297V4.56962H48.5286V6.42534H51.8597V7.78291H48.5286V9.64243H52.145V11H46.882ZM61.0813 5.72944C61.0281 5.54438 60.9533 5.38086 60.857 5.23889C60.7606 5.09439 60.6427 4.97271 60.5033 4.87383C60.3664 4.77243 60.2092 4.69511 60.0318 4.64187C59.8568 4.58863 59.6629 4.56201 59.45 4.56201C59.0519 4.56201 58.7021 4.66088 58.4004 4.85862C58.1013 5.05636 57.868 5.3441 57.7007 5.72184C57.5334 6.09704 57.4497 6.5559 57.4497 7.09842C57.4497 7.64094 57.5321 8.10234 57.6969 8.48261C57.8617 8.86288 58.0949 9.15315 58.3966 9.35343C58.6983 9.55117 59.0545 9.65004 59.4652 9.65004C59.8378 9.65004 60.156 9.58412 60.4196 9.4523C60.6858 9.31793 60.8886 9.12907 61.0281 8.88569C61.17 8.64232 61.241 8.35458 61.241 8.02248L61.5757 8.07191H59.5678V6.83223H62.8268V7.81333C62.8268 8.49782 62.6823 9.08597 62.3933 9.57779C62.1042 10.0671 61.7062 10.4448 61.1992 10.711C60.6922 10.9746 60.1116 11.1065 59.4576 11.1065C58.7274 11.1065 58.0861 10.9455 57.5334 10.6235C56.9807 10.299 56.5498 9.83891 56.2405 9.24315C55.9337 8.64486 55.7803 7.93502 55.7803 7.11363C55.7803 6.48238 55.8716 5.91958 56.0541 5.42523C56.2392 4.92834 56.4978 4.50751 56.8299 4.16273C57.162 3.81795 57.5486 3.55556 57.9897 3.37557C58.4308 3.19557 58.9087 3.10557 59.4233 3.10557C59.8645 3.10557 60.2751 3.17022 60.6554 3.29951C61.0357 3.42627 61.3729 3.60626 61.6669 3.8395C61.9635 4.07273 62.2057 4.35033 62.3933 4.67229C62.5809 4.99172 62.7013 5.3441 62.7545 5.72944H61.0813ZM64.0636 11V3.21205H67.1362C67.7243 3.21205 68.2263 3.31726 68.6421 3.52768C69.0604 3.73556 69.3785 4.0309 69.5965 4.41371C69.8171 4.79398 69.9274 5.24143 69.9274 5.75606C69.9274 6.27323 69.8158 6.71815 69.5927 7.09081C69.3696 7.46094 69.0464 7.74488 68.623 7.94262C68.2022 8.14036 67.6926 8.23923 67.0944 8.23923H65.0371V6.91589H66.8282C67.1425 6.91589 67.4036 6.87279 67.6115 6.7866C67.8194 6.7004 67.974 6.57111 68.0755 6.39872C68.1794 6.22633 68.2314 6.01211 68.2314 5.75606C68.2314 5.49748 68.1794 5.27946 68.0755 5.102C67.974 4.92454 67.8181 4.79017 67.6077 4.69891C67.3998 4.60511 67.1375 4.55821 66.8206 4.55821H65.7102V11H64.0636ZM68.2694 7.45587L70.205 11H68.3873L66.4935 7.45587H68.2694ZM72.4334 11H70.6689L73.3574 3.21205H75.4793L78.164 11H76.3996L74.4488 4.99172H74.388L72.4334 11ZM72.3231 7.93882H76.4909V9.22413H72.3231V7.93882ZM73.8366 2.45911L74.6427 0.728881H76.141L74.9812 2.45911H73.8366ZM77.8532 4.56962V3.21205H84.2493V4.56962H81.865V11H80.2375V4.56962H77.8532ZM86.9492 3.21205V11H85.3027V3.21205H86.9492ZM92.5288 5.45185C92.4984 5.14509 92.3678 4.90679 92.1371 4.73694C91.9064 4.56708 91.5933 4.48216 91.1978 4.48216C90.9291 4.48216 90.7022 4.52018 90.5171 4.59624C90.3321 4.66976 90.1901 4.77243 90.0912 4.90426C89.9949 5.03608 89.9467 5.18566 89.9467 5.35298C89.9417 5.49241 89.9708 5.6141 90.0342 5.71804C90.1001 5.82198 90.1901 5.91197 90.3042 5.98803C90.4183 6.06155 90.5501 6.12619 90.6997 6.18197C90.8492 6.2352 91.009 6.28084 91.1788 6.31886L91.8785 6.48618C92.2182 6.56224 92.53 6.66364 92.814 6.7904C93.0979 6.91716 93.3438 7.07307 93.5517 7.25813C93.7596 7.4432 93.9206 7.66122 94.0346 7.9122C94.1513 8.16318 94.2108 8.45092 94.2134 8.77541C94.2108 9.25202 94.0892 9.66525 93.8483 10.0151C93.61 10.3624 93.2652 10.6324 92.814 10.8251C92.3653 11.0152 91.824 11.1103 91.1902 11.1103C90.5615 11.1103 90.0139 11.0139 89.5475 10.8213C89.0835 10.6286 88.721 10.3434 88.4599 9.96566C88.2013 9.58539 88.0657 9.11512 88.053 8.55486H89.6463C89.6641 8.81598 89.7389 9.034 89.8707 9.20892C90.005 9.38131 90.1838 9.51187 90.4069 9.6006C90.6325 9.6868 90.8873 9.72989 91.1712 9.72989C91.4501 9.72989 91.6922 9.68933 91.8975 9.60821C92.1054 9.52708 92.2664 9.41427 92.3805 9.26977C92.4946 9.12526 92.5516 8.95921 92.5516 8.77161C92.5516 8.59669 92.4996 8.44965 92.3957 8.3305C92.2943 8.21135 92.1447 8.10994 91.947 8.02628C91.7518 7.94262 91.5122 7.86657 91.2282 7.79812L90.3802 7.58517C89.7236 7.42545 89.2052 7.17574 88.8249 6.83603C88.4447 6.49632 88.2558 6.03873 88.2583 5.46325C88.2558 4.99172 88.3813 4.57976 88.6348 4.22737C88.8909 3.87499 89.242 3.59993 89.6882 3.40219C90.1343 3.20445 90.6414 3.10557 91.2092 3.10557C91.7872 3.10557 92.2917 3.20445 92.7227 3.40219C93.1562 3.59993 93.4934 3.87499 93.7342 4.22737C93.9751 4.57976 94.0993 4.98792 94.1069 5.45185H92.5288Z" fill="#51CF66"></path><path d="M12.3283 4.64067H12.3282H11.5328V3.42765C11.5328 3.0571 11.3856 2.70173 11.1236 2.43971C10.8616 2.17769 10.5062 2.03049 10.1356 2.03049H2.30509C1.93454 2.03049 1.57917 2.17769 1.31715 2.43971C1.05513 2.70173 0.907932 3.0571 0.907932 3.42765V9.51806C0.907917 9.80734 0.997691 10.0895 1.16486 10.3256C1.319 10.5432 1.53191 10.7118 1.77806 10.8121C1.77626 11.0336 1.81464 11.2537 1.89153 11.4618C1.97616 11.6909 2.10573 11.9008 2.27264 12.0791C2.43954 12.2573 2.6404 12.4005 2.86341 12.5C3.08642 12.5995 3.32708 12.6535 3.57124 12.6587C3.8154 12.6639 4.05814 12.6202 4.28518 12.5302C4.51222 12.4403 4.71898 12.3058 4.89331 12.1348C5.06763 11.9637 5.20601 11.7596 5.3003 11.5343C5.3827 11.3374 5.42998 11.1279 5.44024 10.9152H9.61085C9.63359 11.3676 9.82333 11.7969 10.1452 12.1187C10.4888 12.4623 10.9548 12.6553 11.4407 12.6553C11.9266 12.6553 12.3927 12.4623 12.7363 12.1187C13.0581 11.7969 13.2479 11.3676 13.2706 10.9152H13.6159C13.9864 10.9152 14.3418 10.768 14.6038 10.506C14.8658 10.244 15.013 9.88862 15.013 9.51807V7.64834C15.013 7.64833 15.013 7.64832 15.013 7.64831C15.0131 7.33073 14.9051 7.02258 14.7066 6.77466L13.418 5.16507C13.418 5.16506 13.418 5.16505 13.418 5.16504C13.2873 5.00159 13.1215 4.86961 12.9328 4.77885C12.7442 4.68808 12.5376 4.64086 12.3283 4.64067ZM1.96213 9.51814V9.51807V3.42765C1.96213 3.33669 1.99826 3.24946 2.06258 3.18514C2.1269 3.12082 2.21413 3.08469 2.30509 3.08469H10.1356C10.2266 3.08469 10.3138 3.12082 10.3781 3.18514C10.4425 3.24946 10.4786 3.33669 10.4786 3.42765V9.26397C10.2358 9.41378 10.0313 9.61824 9.88153 9.86103H5.16938C5.01226 9.60638 4.795 9.39384 4.53636 9.2423C4.26229 9.08172 3.95118 8.99514 3.63356 8.99108C3.31593 8.98701 3.00271 9.0656 2.72462 9.21912C2.47301 9.35802 2.25799 9.55394 2.09652 9.79067C2.06534 9.76679 2.03834 9.7376 2.01684 9.70427C1.98107 9.64878 1.96207 9.58416 1.96213 9.51814ZM13.8833 7.4335L13.8834 7.4336C13.9321 7.4943 13.9587 7.56977 13.9588 7.6476V9.51807C13.9588 9.60903 13.9227 9.69626 13.8584 9.76058C13.7941 9.8249 13.7068 9.86103 13.6159 9.86103H12.9999C12.8407 9.60303 12.6198 9.38831 12.3568 9.23645C12.1049 9.09102 11.8224 9.00786 11.5328 8.99329V5.69487H12.3281C12.3795 5.69494 12.4302 5.70657 12.4765 5.72889C12.5228 5.75121 12.5635 5.78365 12.5956 5.82382L12.5956 5.82388L13.8833 7.4335ZM3.06006 10.273C3.20596 10.1271 3.40384 10.0452 3.61018 10.0452C3.81652 10.0452 4.0144 10.1271 4.1603 10.273C4.30621 10.4189 4.38817 10.6168 4.38817 10.8232C4.38817 11.0295 4.30621 11.2274 4.1603 11.3733C4.0144 11.5192 3.81652 11.6012 3.61018 11.6012C3.40384 11.6012 3.20596 11.5192 3.06006 11.3733C2.91415 11.2274 2.83219 11.0295 2.83219 10.8232C2.83219 10.6168 2.91415 10.4189 3.06006 10.273ZM10.8906 10.273C11.0365 10.1271 11.2344 10.0452 11.4407 10.0452C11.6471 10.0452 11.8449 10.1271 11.9908 10.273C12.1367 10.4189 12.2187 10.6168 12.2187 10.8232C12.2187 11.0295 12.1367 11.2274 11.9908 11.3733C11.8449 11.5192 11.6471 11.6012 11.4407 11.6012C11.2344 11.6012 11.0365 11.5192 10.8906 11.3733C10.7447 11.2274 10.6627 11.0295 10.6627 10.8232C10.6627 10.6168 10.7447 10.4189 10.8906 10.273Z" fill="#51CF66" stroke="#51CF66" stroke-width="0.184136"></path></svg>